<svg width="67.2" height="13" viewBox="0 0 17.779 3.44" xmlns="http://www.w3.org/2000/svg"><path d="M16.509 1.178l1.174.171-.85.829.2 1.17-1.05-.553-1.05.552.2-1.169-.85-.829 1.175-.17.525-1.065zm-3.551 0l1.175.171-.85.829.2 1.17-1.05-.553-1.05.552.2-1.169-.85-.829 1.175-.17.525-1.065zm-3.543 0l1.175.171-.85.829.2 1.17-1.05-.553-1.05.552.2-1.169-.85-.829 1.175-.17.526-1.065zm-3.55 0l1.175.171-.85.829.2 1.17-1.05-.553-1.05.552.201-1.169-.851-.829 1.174-.17L5.34.113zm-3.55 0l1.175.171-.85.829.201 1.17-1.05-.553-1.051.552.2-1.169-.85-.829 1.175-.17.526-1.065zM-.302-.277v4.041h18.43V-.277z" fill="rgb(255,255,0)" /></svg>